<?xml version="1.0" encoding="UTF-8" standalone="no"?>
<svg
   viewBox="0 0 1600 400"
   version="1.1"
   id="svg1"
   sodipodi:docname="iron-grip-white-convertido.svg"
   inkscape:version="1.4.3 (0d15f75, 2025-12-25)"
   xmlns:inkscape="http://www.inkscape.org/namespaces/inkscape"
   xmlns:sodipodi="http://sodipodi.sourceforge.net/DTD/sodipodi-0.dtd"
   xmlns="http://www.w3.org/2000/svg"
   xmlns:svg="http://www.w3.org/2000/svg">
  <defs
     id="defs1" />
  <sodipodi:namedview
     id="namedview1"
     pagecolor="#ffffff"
     bordercolor="#000000"
     borderopacity="0.25"
     inkscape:showpageshadow="2"
     inkscape:pageopacity="0.0"
     inkscape:pagecheckerboard="0"
     inkscape:deskcolor="#d1d1d1"
     inkscape:zoom="0.555"
     inkscape:cx="927.92793"
     inkscape:cy="244.14414"
     inkscape:window-width="1920"
     inkscape:window-height="1017"
     inkscape:window-x="-8"
     inkscape:window-y="-8"
     inkscape:window-maximized="1"
     inkscape:current-layer="svg1" />
  <style
     id="style1">
.text { font-family: Arial, Helvetica, sans-serif; font-weight: 900; font-size: 220px; }
</style>
  <rect
     width="100%"
     height="100%"
     fill="none"
     id="rect1" />
  <path
     d="m 146.04669,128.28528 h 48.76953 v 157.48047 h -48.76953 z m 84.32617,157.48047 V 128.28528 h 81.10352 q 22.55859,0 34.48242,3.86719 11.92383,3.86718 19.22852,14.39453 7.30468,10.41992 7.30468,25.45898 0,13.10547 -5.58593,22.66602 -5.58594,9.45312 -15.36133,15.36133 -6.23047,3.75976 -17.08008,6.23046 8.70117,2.90039 12.67578,5.80079 2.68555,1.93359 7.73438,8.27148 5.15625,6.33789 6.875,9.77539 l 23.52539,45.6543 h -55 l -25.9961,-48.125 q -4.9414,-9.34571 -8.80859,-12.13867 -5.26367,-3.65235 -11.92383,-3.65235 h -4.29687 v 63.91602 z m 48.87696,-93.67188 h 20.51758 q 3.33007,0 12.89062,-2.14844 4.83398,-0.96679 7.8418,-4.9414 3.11523,-3.97461 3.11523,-9.13086 0,-7.62695 -4.83398,-11.70899 -4.83399,-4.08203 -18.1543,-4.08203 h -21.37695 z m 111.71875,15.03906 q 0,-38.56445 21.48437,-60.04882 21.48438,-21.48438 59.83399,-21.48438 39.3164,0 60.58593,21.16211 21.26954,21.05469 21.26954,59.08203 0,27.60742 -9.34571,45.33203 -9.23828,17.61719 -26.85547,27.5 -17.50976,9.77539 -43.7207,9.77539 -26.64062,0 -44.15039,-8.48632 -17.40234,-8.48633 -28.25195,-26.85547 -10.84961,-18.36914 -10.84961,-45.97657 z m 48.66211,0.21485 q 0,23.84765 8.80859,34.26758 8.91602,10.41992 24.16992,10.41992 15.6836,0 24.27735,-10.20508 8.59375,-10.20508 8.59375,-36.63086 0,-22.23633 -9.02344,-32.44141 -8.91602,-10.3125 -24.27735,-10.3125 -14.71679,0 -23.63281,10.41993 -8.91601,10.41992 -8.91601,34.48242 z m 141.04492,-79.0625 h 45.43945 l 59.29688,87.11914 v -87.11914 h 45.86914 v 157.48047 h -45.86914 l -58.97461,-86.47461 v 86.47461 H 580.6756 Z m 335.47851,100.43945 v -32.76367 h 75.19532 v 67.13867 q -21.5918,14.7168 -38.24219,20.08789 -16.54297,5.26367 -39.31641,5.26367 -28.03711,0 -45.76172,-9.56054 -17.61718,-9.56055 -27.39257,-28.4668 -9.66797,-18.90625 -9.66797,-43.39844 0,-25.78125 10.63476,-44.79492 10.63477,-19.12109 31.15235,-29.00391 16.00586,-7.62695 43.07617,-7.62695 26.10351,0 38.99414,4.72656 12.99805,4.72657 21.48437,14.7168 8.59375,9.88281 12.89063,25.13672 l -46.94336,8.37891 q -2.90039,-8.91602 -9.88281,-13.64258 -6.875,-4.72656 -17.61719,-4.72656 -16.00586,0 -25.56641,11.17187 -9.45312,11.06445 -9.45312,35.12695 0,25.56641 9.56055,36.52344 9.66796,10.95703 26.85546,10.95703 8.16407,0 15.57618,-2.36328 7.41211,-2.36328 16.97265,-8.05664 v -14.82422 z m 104.73629,57.04102 V 128.28528 h 81.1036 q 22.5586,0 34.4824,3.86719 11.9238,3.86718 19.2285,14.39453 7.3047,10.41992 7.3047,25.45898 0,13.10547 -5.586,22.66602 -5.5859,9.45312 -15.3613,15.36133 -6.2305,3.75976 -17.0801,6.23046 8.7012,2.90039 12.6758,5.80079 2.6856,1.93359 7.7344,8.27148 5.1562,6.33789 6.875,9.77539 l 23.5254,45.6543 h -55 l -25.9961,-48.125 q -4.9414,-9.34571 -8.8086,-12.13867 -5.2637,-3.65235 -11.9238,-3.65235 h -4.2969 v 63.91602 z m 48.877,-93.67188 h 20.5176 q 3.3301,0 12.8906,-2.14844 4.834,-0.96679 7.8418,-4.9414 3.1152,-3.97461 3.1152,-9.13086 0,-7.62695 -4.834,-11.70899 -4.8339,-4.08203 -18.1543,-4.08203 h -21.3769 z m 123.5352,-63.80859 h 48.7695 v 157.48047 h -48.7695 z m 83.4667,0 h 80.8887 q 26.4258,0 39.5313,12.56836 13.2129,12.56836 13.2129,35.77148 0,23.84766 -14.3946,37.27539 -14.2871,13.42774 -43.7207,13.42774 h -26.6406 v 58.4375 h -48.877 z m 48.877,67.13867 h 11.9238 q 14.0723,0 19.7657,-4.83398 5.6933,-4.94141 5.6933,-12.56836 0,-7.41211 -4.9414,-12.56836 -4.9414,-5.15625 -18.584,-5.15625 h -13.8574 z"
     id="text1"
     style="font-weight:900;font-size:220px;font-family:Arial, Helvetica, sans-serif;text-anchor:middle;fill:#ffffff;fill-opacity:0.424528"
     class="text"
     aria-label="IRON GRIP" />
</svg>
